<svg width="220" height="220" viewBox="0 0 220 220" xmlns="http://www.w3.org/2000/svg" role="img" aria-label="Nova AI companion">
  <rect width="220" height="220" rx="42" fill="#071018"/>
  <circle cx="110" cy="108" r="78" fill="#102031" stroke="#22D3EE" stroke-width="5"/>
  <circle cx="110" cy="108" r="54" fill="#172A3C" stroke="#00C805" stroke-width="4"/>
  <path d="M110 35L120 66L153 66L126 85L136 117L110 98L84 117L94 85L67 66L100 66Z" fill="#38BDF8" opacity=".35"/>
  <rect x="66" y="88" width="88" height="52" rx="24" fill="#101821" stroke="#38BDF8" stroke-width="4"/>
  <circle cx="91" cy="112" r="8" fill="#00C805"/>
  <circle cx="129" cy="112" r="8" fill="#00C805"/>
  <path d="M91 132C103 140 117 140 129 132" fill="none" stroke="#D7FFE0" stroke-width="6" stroke-linecap="round"/>
  <path d="M43 152C76 177 145 177 177 152" fill="none" stroke="#22D3EE" stroke-width="7" stroke-linecap="round"/>
  <path d="M60 171H160" stroke="#293546" stroke-width="9" stroke-linecap="round"/>
  <text x="110" y="204" text-anchor="middle" fill="#A7F3D0" font-family="Inter, Arial, sans-serif" font-size="18" font-weight="900">NOVA</text>
</svg>
